<!--?xml version="1.0" standalone="no"?-->
              <svg id="sw-js-blob-svg" viewBox="0 0 100 100" xmlns="http://www.w3.org/2000/svg" version="1.1">
                    <defs> 
                        <linearGradient id="sw-gradient" x1="0" x2="1" y1="1" y2="0">
                            <stop id="stop1" stop-color="rgba(61.402, 248, 55, 1)" offset="0%"></stop>
                            <stop id="stop2" stop-color="rgba(31, 251, 202.56, 1)" offset="100%"></stop>
                        </linearGradient>
                    </defs>
                <path fill="url(#sw-gradient)" d="M24.4,-28.9C31.8,-22.9,38.1,-15.4,41,-6.2C43.8,3,43.3,13.9,37.9,20.7C32.6,27.6,22.4,30.5,12.6,33.8C2.7,37.1,-6.7,40.8,-13.2,37.8C-19.7,34.8,-23.3,25.2,-25.5,16.9C-27.8,8.6,-28.7,1.7,-28,-5.4C-27.4,-12.6,-25.2,-20,-20.2,-26.4C-15.3,-32.9,-7.6,-38.4,0.4,-38.9C8.5,-39.5,17,-34.9,24.4,-28.9Z" width="100%" height="100%" transform="translate(50 50)" stroke-width="0" style="transition: 0.3s;"></path>
              </svg>